24f6596ded0b4a1f62417e673f5393e3 *tests/data/fate/id3v2-utf16-bom.aiff
885482 tests/data/fate/id3v2-utf16-bom.aiff
#tb 0: 1/90000
#media_type 0: video
#codec_id 0: mjpeg
#dimensions 0: 350x350
#sar 0: 1/1
#tb 1: 1/48000
#media_type 1: audio
#codec_id 1: pcm_s24be
#sample_rate 1: 48000
#channel_layout_name 1: hexagonal
0,          0,          0,        0,    19650, 0xd5662610
1,          0,          0,      227,     4086, 0x00000000
1,        227,        227,      227,     4086, 0x00000000
1,        454,        454,      227,     4086, 0x00000000
1,        681,        681,      227,     4086, 0xe4b21565
1,        908,        908,      227,     4086, 0x5d784804
1,       1135,       1135,      227,     4086, 0x666410bd
1,       1362,       1362,      227,     4086, 0xbf7dff85
1,       1589,       1589,      227,     4086, 0xbd93f047
1,       1816,       1816,      227,     4086, 0xb405e28c
1,       2043,       2043,      227,     4086, 0xaf4bdd8d
1,       2270,       2270,      227,     4086, 0x4711fa28
[STREAM]
channel_layout=hexagonal
[/STREAM]
[STREAM]
TAG:title=Дороги
TAG:comment=Other
[/STREAM]
[FORMAT]
TAG:title=Дороги
TAG:RATING=0
TAG:album=Ангелофрения
TAG:artist=Мельница
TAG:tracktotal=11
TAG:totaltracks=11
TAG:genre=Folk
TAG:track=2
TAG:date=2012
[/FORMAT]
